<COLLADA xmlns="http://www.collada.org/2005/11/COLLADASchema" version="1.4.1">
  <asset>
    <created>2026-09-12T01:19:07.643873</created>
    <modified>2026-09-12T01:19:07.643883</modified>
    <up_axis>Y_UP</up_axis>
  </asset>
  <library_effects>
    <effect id="6ced1eb22a09452aaa6f7cebfbc8e904" name="6ced1eb22a09452aaa6f7cebfbc8e904">
      <profile_COMMON>
        <technique sid="common">
          <phong>
            <emission>
              <color>0.0 0.0 0.0 1.0</color>
            </emission>
            <ambient>
              <color>0.0 0.0 0.0 1.0</color>
            </ambient>
            <diffuse>
              <color>0.0 0.0 0.0 1.0</color>
            </diffuse>
            <specular>
              <color>0.0 0.0 0.0 1.0</color>
            </specular>
            <shininess>
              <float>0.0</float>
            </shininess>
            <reflective>
              <color>0.0 0.0 0.0 1.0</color>
            </reflective>
            <reflectivity>
              <float>0.0</float>
            </reflectivity>
            <transparent>
              <color>0.0 0.0 0.0 1.0</color>
            </transparent>
            <transparency>
              <float>1.0</float>
            </transparency>
          </phong>
        </technique>
        <extra>
          <technique profile="GOOGLEEARTH">
            <double_sided>0</double_sided>
          </technique>
        </extra>
      </profile_COMMON>
    </effect>
  </library_effects>
  <library_geometries>
    <geometry id="18ff7903a7124d7f992020321b006ca4" name="15e7edb5ec434ce49123547b5556e951">
      <mesh>
        <source id="verts-array">
          <float_array count="24" id="verts-array-array">-0.005 -0.005 -0.005 -0.005 -0.005 0.005 -0.005 0.005 -0.005 -0.005 0.005 0.005 0.005 -0.005 -0.005 0.005 -0.005 0.005 0.005 0.005 -0.005 0.005 0.005 0.005</float_array>
          <technique_common>
            <accessor count="8" source="#verts-array-array" stride="3">
              <param type="float" name="X"/>
              <param type="float" name="Y"/>
              <param type="float" name="Z"/>
            </accessor>
          </technique_common>
        </source>
        <source id="normals-array">
          <float_array count="24" id="normals-array-array">-0.5773503 -0.5773503 -0.5773503 -0.5773503 -0.5773503 0.5773503 -0.5773503 0.5773503 -0.5773503 -0.5773503 0.5773503 0.5773503 0.5773503 -0.5773503 -0.5773503 0.5773503 -0.5773503 0.5773503 0.5773503 0.5773503 -0.5773503 0.5773503 0.5773503 0.5773503</float_array>
          <technique_common>
            <accessor count="8" source="#normals-array-array" stride="3">
              <param type="float" name="X"/>
              <param type="float" name="Y"/>
              <param type="float" name="Z"/>
            </accessor>
          </technique_common>
        </source>
        <vertices id="verts-array-vertices">
          <input semantic="POSITION" source="#verts-array"/>
        </vertices>
        <triangles count="12" material="material0">
          <input offset="0" semantic="VERTEX" source="#verts-array-vertices"/>
          <input offset="1" semantic="NORMAL" source="#normals-array"/>
          <p>1 1 3 3 0 0 4 4 1 1 0 0 0 0 3 3 2 2 2 2 4 4 0 0 1 1 7 7 3 3 5 5 1 1 4 4 5 5 7 7 1 1 3 3 7 7 2 2 6 6 4 4 2 2 2 2 7 7 6 6 6 6 5 5 4 4 7 7 5 5 6 6</p>
        </triangles>
      </mesh>
    </geometry>
  </library_geometries>
  <library_materials>
    <material id="eaa5f3a1108744d08f28303d5d649b0f" name="defaultmaterial">
      <instance_effect url="#6ced1eb22a09452aaa6f7cebfbc8e904"/>
    </material>
  </library_materials>
  <library_visual_scenes>
    <visual_scene id="scene">
      <node id="node0" name="node0">
        <instance_geometry url="#18ff7903a7124d7f992020321b006ca4">
          <bind_material>
            <technique_common>
              <instance_material symbol="material0" target="#eaa5f3a1108744d08f28303d5d649b0f"/>
            </technique_common>
          </bind_material>
        </instance_geometry>
      </node>
    </visual_scene>
  </library_visual_scenes>
  <scene>
    <instance_visual_scene url="#scene"/>
  </scene>
</COLLADA>
